<!-- icon666.com - MILLIONS vector ICONS FREE --><svg xmlns="http://www.w3.org/2000/svg" viewBox="0 0 32 32"><g id="Boost"><path d="M20.87,9.5l-4-7a1,1,0,0,0-1.74,0l-4,7A1,1,0,0,0,12.24,11l.76-.19V28a2,2,0,0,0,2,2h2a2,2,0,0,0,2-2V10.78l.76.19A1,1,0,0,0,20.87,9.5ZM16,5l2,3.45L16.24,8a1,1,0,0,0-.49,0L14,8.46ZM15,28V10.62l1-.5,1,.5V28ZM29.87,17.5l-4-7a1,1,0,0,0-1.74,0l-4,7A1,1,0,0,0,21.24,19l.76-.19V28a2,2,0,0,0,2,2h2a2,2,0,0,0,2-2V18.78l.76.19a1,1,0,0,0,1.11-1.47ZM25,13l2,3.45L25.24,16a1,1,0,0,0-.49,0L23,16.46ZM24,28V18.62l1-.5,1,.5V28ZM7.87,10.5a1,1,0,0,0-1.74,0l-4,7A1,1,0,0,0,3.24,19L4,18.78V28a2,2,0,0,0,2,2H8a2,2,0,0,0,2-2V18.78l.76.19a1,1,0,0,0,1.11-1.47ZM7,13l2,3.45L7.24,16a1,1,0,0,0-.49,0L5,16.46ZM6,28V18.62l1-.5,1,.5V28Z" fill="#000000" style="fill: rgb(5, 119, 195);"></path></g></svg>