<!-- icon666.com - MILLIONS vector ICONS FREE --><svg viewBox="0 0 48 48" xmlns="http://www.w3.org/2000/svg"><g id="Home"><path d="m40.86 11.381-13.525-8.678c-1.871-1.2-4.8-1.2-6.67 0l-13.524 8.679c-1.833 1.176-3.215 3.705-3.215 5.883v24.391c0 2.481 2.019 4.5 4.5 4.5h31.148c2.481 0 4.5-2.019 4.5-4.5v-24.391c0-2.179-1.382-4.707-3.214-5.884zm.214 30.274c0 .827-.673 1.5-1.5 1.5h-31.148c-.827 0-1.5-.673-1.5-1.5v-24.39c0-1.141.875-2.742 1.835-3.358l13.524-8.679c.449-.288 1.082-.432 1.715-.432s1.266.144 1.714.432l13.525 8.678c.961.616 1.835 2.217 1.835 3.358zm-17.074-19.494c-5.632 0-10.213 4.582-10.213 10.213v6.793c0 .828.671 1.5 1.5 1.5s1.5-.672 1.5-1.5v-6.793c0-3.978 3.236-7.214 7.213-7.214s7.213 3.236 7.213 7.214v6.793c0 .828.672 1.5 1.5 1.5s1.5-.672 1.5-1.5v-6.793c0-5.632-4.581-10.213-10.213-10.213z" fill="#000000" style="fill: rgb(5, 119, 195);"></path></g></svg>