<!-- icon666.com - MILLIONS vector ICONS FREE --><svg viewBox="0 0 512 512.00075" xmlns="http://www.w3.org/2000/svg"><path d="m492 472h-15.117188v-256.4375c0-11.042969-8.953124-20-20-20h-90.230468c-11.046875 0-20 8.953125-20 20v256.4375h-25.535156v-163.660156c0-11.046875-8.953126-20.003906-20-20.003906h-90.230469c-11.046875 0-20 8.957031-20 20.003906v163.660156h-25.535157v-70.886719c0-11.046875-8.957031-20-20-20h-90.234374c-11.046876 0-20 8.953125-20 20v70.886719h-15.117188c-11.046875 0-20 8.953125-20 20s8.953125 20 20 20h472c11.046875 0 20-8.953125 20-20s-8.953125-20-20-20zm-366.652344 0h-50.230468v-50.886719h50.230468zm155.769532 0h-50.234376v-143.660156h50.234376zm155.765624 0h-50.230468v-236.433594h50.230468zm-84.320312-358.507812-6.636719 38.6875c-2.796875 16.308593 14.367188 28.785156 29.019531 21.085937l34.742188-18.269531 34.746094 18.269531c14.636718 7.691406 31.816406-4.765625 29.019531-21.085937l-6.636719-38.691407 28.105469-27.398437c11.851563-11.546875 5.300781-31.734375-11.082031-34.113282l-38.84375-5.644531-17.371094-35.203125c-7.324219-14.835937-28.542969-14.84375-35.871094 0l-17.371094 35.203125-38.84375 5.644531c-16.375 2.378907-22.941406 22.558594-11.085937 34.113282zm37.976562-29.085938c6.515626-.949219 12.144532-5.039062 15.058594-10.941406l4.089844-8.289063 4.09375 8.289063c2.910156 5.902344 8.542969 9.992187 15.058594 10.941406l9.144531 1.328125-6.617187 6.453125c-4.714844 4.59375-6.863282 11.214844-5.75 17.703125l1.5625 9.109375-8.183594-4.300781c-5.824219-3.066407-12.785156-3.0625-18.613282 0l-8.179687 4.300781 1.5625-9.109375c1.113281-6.488281-1.039063-13.109375-5.753906-17.703125l-6.617188-6.453125zm0 0" fill="#000000" style="fill: rgb(5, 119, 195); stroke-width: 0.5;"></path></svg>